<svg width="48" height="48" viewBox="0 0 48 48" fill="none" xmlns="http://www.w3.org/2000/svg">
<g clip-path="url(#clip0_62_162)">
<rect width="48" height="48" fill="#8A38F5"/>
<path d="M13.5 43V30.5L2 31.5L9.5 17.5L3.5 12L12 11L6 1L21 6.5L27 1L29.5 6.5L43 2L37 13.5L44 18.5L37 25L46.5 38L32 31.5L29.5 46L21 34.5L13.5 43Z" fill="#FB8C00" stroke="#4527A0"/>
<circle cx="24" cy="20" r="11.5" fill="#FFB74D" stroke="#4527A0"/>
<path d="M21.5 16.5H15L16 21.5H21.5L23 19H24.5L26.5 21.5H31.5L32.5 16.5H26.5L24.5 17.5H23L21.5 16.5Z" fill="#111111" stroke="#4527A0"/>
<path d="M32 23C26.6727 24.7763 23.1996 24.843 16.5 24C19.2532 27.0984 23 29.5 26.5 29C30 28.5 32.4503 26.1264 32 23Z" fill="white" stroke="#4527A0"/>
</g>
<defs>
<clipPath id="clip0_62_162">
<rect width="48" height="48" fill="white"/>
</clipPath>
</defs>
</svg>
